<svg width="740" height="197" viewBox="0 0 740 197" xmlns="http://www.w3.org/2000/svg">
  <g transform="translate(20, 139.04)">
    <path d="M45.12 1.44L45.12 1.44Q33.12 1.44 24.24-3.90Q15.36-9.24 10.44-18.90Q5.52-28.56 5.52-41.40L5.52-41.40Q5.52-54.36 10.56-64.26Q15.60-74.16 25.08-79.80Q34.56-85.44 47.76-85.44L47.76-85.44Q62.52-85.44 72.30-78.36Q82.08-71.28 84.96-58.68L84.96-58.68L66.84-58.68Q65.04-64.20 60.18-67.38Q55.32-70.56 47.64-70.56L47.64-70.56Q39.48-70.56 33.72-66.96Q27.96-63.36 24.96-56.88Q21.96-50.40 21.96-41.40L21.96-41.40Q21.96-32.28 24.96-25.92Q27.96-19.56 33.54-16.26Q39.12-12.96 46.68-12.96L46.68-12.96Q57.72-12.96 63.42-18.90Q69.12-24.84 70.20-34.32L70.20-34.32L49.56-34.32L49.56-46.44L86.52-46.44L86.52 0L71.52 0L70.32-10.68L70.32-10.68Q67.68-6.72 64.14-4.02Q60.60-1.32 55.92 0.06Q51.24 1.44 45.12 1.44Z M126.84 1.44L126.84 1.44Q118.20 1.44 111.30-2.58Q104.40-6.60 100.38-13.74Q96.36-20.88 96.36-30.12L96.36-30.12Q96.36-39.60 100.38-46.74Q104.40-53.88 111.36-57.90Q118.32-61.92 126.96-61.92L126.96-61.92Q135.72-61.92 142.62-57.90Q149.52-53.88 153.54-46.74Q157.56-39.60 157.56-30.24L157.56-30.24Q157.56-20.88 153.54-13.74Q149.52-6.60 142.56-2.58Q135.60 1.44 126.84 1.44ZM126.84-12.60L126.84-12.60Q130.92-12.60 134.10-14.52Q137.28-16.44 139.14-20.40Q141-24.36 141-30.24L141-30.24Q141-36.12 139.14-40.02Q137.28-43.92 134.10-45.90Q130.92-47.88 126.96-47.88L126.96-47.88Q123.12-47.88 119.88-45.90Q116.64-43.92 114.78-40.02Q112.92-36.12 112.92-30.24L112.92-30.24Q112.92-24.36 114.78-20.40Q116.64-16.44 119.82-14.52Q123-12.60 126.84-12.60Z M221.88 0L168.84 0L168.84-84L185.04-84L185.04-12.60L221.88-12.60L221.88 0Z M261 1.44L261 1.44Q252.36 1.44 245.46-2.58Q238.56-6.60 234.54-13.74Q230.52-20.88 230.52-30.12L230.52-30.12Q230.52-39.60 234.54-46.74Q238.56-53.88 245.52-57.90Q252.48-61.92 261.12-61.92L261.12-61.92Q269.88-61.92 276.78-57.90Q283.68-53.88 287.70-46.74Q291.72-39.60 291.72-30.24L291.72-30.24Q291.72-20.88 287.70-13.74Q283.68-6.60 276.72-2.58Q269.76 1.44 261 1.44ZM261-12.60L261-12.60Q265.08-12.60 268.26-14.52Q271.44-16.44 273.30-20.40Q275.16-24.36 275.16-30.24L275.16-30.24Q275.16-36.12 273.30-40.02Q271.44-43.92 268.26-45.90Q265.08-47.88 261.12-47.88L261.12-47.88Q257.28-47.88 254.04-45.90Q250.80-43.92 248.94-40.02Q247.08-36.12 247.08-30.24L247.08-30.24Q247.08-24.36 248.94-20.40Q250.80-16.44 253.98-14.52Q257.16-12.60 261-12.60Z M328.68 27.84L328.68 27.84Q320.04 27.84 313.56 25.74Q307.08 23.64 303.54 19.38Q300.00 15.12 300.00 8.88L300.00 8.88Q300.00 4.68 302.16 0.96Q304.32-2.76 308.46-5.82Q312.60-8.88 318.84-11.04L318.84-11.04L324.96-3.12Q319.44-1.32 316.98 1.38Q314.52 4.08 314.52 7.20L314.52 7.20Q314.52 9.96 316.38 11.88Q318.24 13.80 321.42 14.70Q324.60 15.60 328.56 15.60L328.56 15.60Q332.40 15.60 335.22 14.64Q338.04 13.68 339.66 11.82Q341.28 9.96 341.28 7.44L341.28 7.44Q341.28 4.20 339 2.16Q336.72 0.12 329.88-0.36L329.88-0.36Q323.76-0.84 319.02-1.74Q314.28-2.64 310.68-3.90Q307.08-5.16 304.62-6.72Q302.16-8.28 300.60-9.84L300.60-9.84L300.60-12.60L313.44-26.40L325.08-22.68L309.96-7.80L314.52-15.72Q315.84-15 317.10-14.34Q318.36-13.68 320.28-13.14Q322.20-12.60 325.32-12.12Q328.44-11.64 333.24-11.28L333.24-11.28Q341.16-10.56 346.26-8.28Q351.36-6 353.76-2.22Q356.16 1.56 356.16 7.08L356.16 7.08Q356.16 12.48 353.22 17.22Q350.28 21.96 344.16 24.90Q338.04 27.84 328.68 27.84ZM328.68-17.88L328.68-17.88Q321.12-17.88 315.66-20.82Q310.20-23.76 307.26-28.74Q304.32-33.72 304.32-39.84L304.32-39.84Q304.32-45.96 307.26-50.94Q310.20-55.92 315.66-58.92Q321.12-61.92 328.68-61.92L328.68-61.92Q336.36-61.92 341.82-58.92Q347.28-55.92 350.16-50.94Q353.04-45.96 353.04-39.84L353.04-39.84Q353.04-33.72 350.16-28.74Q347.28-23.76 341.82-20.82Q336.36-17.88 328.68-17.88ZM328.68-30.24L328.68-30.24Q333.36-30.24 336.24-32.64Q339.12-35.04 339.12-39.72L339.12-39.72Q339.12-44.40 336.24-46.86Q333.36-49.32 328.68-49.32L328.68-49.32Q324.12-49.32 321.18-46.86Q318.24-44.40 318.24-39.72L318.24-39.72Q318.24-35.04 321.18-32.64Q324.12-30.24 328.68-30.24ZM360.96-50.88L338.76-48.96L336.12-60.48L360.96-60.48L360.96-50.88Z M399.72 1.44L399.72 1.44Q391.08 1.44 384.18-2.58Q377.28-6.60 373.26-13.74Q369.24-20.88 369.24-30.12L369.24-30.12Q369.24-39.60 373.26-46.74Q377.28-53.88 384.24-57.90Q391.20-61.92 399.84-61.92L399.84-61.92Q408.60-61.92 415.50-57.90Q422.40-53.88 426.42-46.74Q430.44-39.60 430.44-30.24L430.44-30.24Q430.44-20.88 426.42-13.74Q422.40-6.60 415.44-2.58Q408.48 1.44 399.72 1.44ZM399.72-12.60L399.72-12.60Q403.80-12.60 406.98-14.52Q410.16-16.44 412.02-20.40Q413.88-24.36 413.88-30.24L413.88-30.24Q413.88-36.12 412.02-40.02Q410.16-43.92 406.98-45.90Q403.80-47.88 399.84-47.88L399.84-47.88Q396.00-47.88 392.76-45.90Q389.52-43.92 387.66-40.02Q385.80-36.12 385.80-30.24L385.80-30.24Q385.80-24.36 387.66-20.40Q389.52-16.44 392.70-14.52Q395.88-12.60 399.72-12.60Z M479.52 0L468.60 0Q462.24 0 457.50-1.98Q452.76-3.96 450.12-8.58Q447.48-13.20 447.48-21.24L447.48-21.24L447.48-46.92L437.16-46.92L437.16-60.48L447.48-60.48L449.28-76.92L463.68-76.92L463.68-60.48L479.64-60.48L479.64-46.92L463.68-46.92L463.68-21Q463.68-16.92 465.48-15.36Q467.28-13.80 471.60-13.80L471.60-13.80L479.52-13.80L479.52 0Z M515.16 26.40L498.00 26.40L512.64-6.72L509.04-6.72L484.80-60.48L502.44-60.48L519.72-21.48L519.72-21.48L535.32-60.48L552.48-60.48L515.16 26.40Z M576.00 26.40L559.80 26.40L559.80-60.48L574.20-60.48L576.00-52.08L576.00-52.08Q577.92-54.72 580.56-56.94Q583.20-59.16 586.86-60.54Q590.52-61.92 595.44-61.92L595.44-61.92Q603.96-61.92 610.44-57.72Q616.92-53.52 620.70-46.38Q624.48-39.24 624.48-30.12L624.48-30.12Q624.48-21 620.64-13.86Q616.80-6.72 610.32-2.64Q603.84 1.44 595.56 1.44L595.56 1.44Q588.84 1.44 583.98-1.02Q579.12-3.48 576.00-7.80L576.00-7.80L576.00 26.40ZM591.72-12.72L591.72-12.72Q596.52-12.72 600.18-14.88Q603.84-17.04 605.88-21Q607.92-24.96 607.92-30.12L607.92-30.12Q607.92-35.28 605.88-39.30Q603.84-43.32 600.18-45.54Q596.52-47.76 591.72-47.76L591.72-47.76Q587.04-47.76 583.38-45.54Q579.72-43.32 577.62-39.36Q575.52-35.40 575.52-30.24L575.52-30.24Q575.52-25.08 577.62-21.06Q579.72-17.04 583.38-14.88Q587.04-12.72 591.72-12.72Z M664.44 1.44L664.44 1.44Q655.32 1.44 648.30-2.46Q641.28-6.36 637.38-13.38Q633.48-20.40 633.48-29.64L633.48-29.64Q633.48-39.12 637.32-46.38Q641.16-53.64 648.18-57.78Q655.20-61.92 664.44-61.92L664.44-61.92Q673.44-61.92 680.16-57.96Q686.88-54 690.60-47.28Q694.32-40.56 694.32-32.04L694.32-32.04Q694.32-30.84 694.32-29.34Q694.32-27.84 694.08-26.28L694.08-26.28L645.00-26.28L645.00-36.12L678.00-36.12Q677.64-42 673.86-45.36Q670.08-48.72 664.44-48.72L664.44-48.72Q660.36-48.72 656.88-46.86Q653.40-45 651.42-41.16Q649.44-37.32 649.44-31.44L649.44-31.44L649.44-27.96Q649.44-23.04 651.30-19.38Q653.16-15.72 656.52-13.74Q659.88-11.76 664.32-11.76L664.32-11.76Q668.76-11.76 671.70-13.68Q674.64-15.60 676.08-18.60L676.08-18.60L692.64-18.60Q690.96-12.96 687.00-8.40Q683.04-3.84 677.28-1.20Q671.52 1.44 664.44 1.44Z" fill="#2245FF"/>
  </g>
</svg>