<svg width="963" height="208" viewBox="0 0 963 208" xmlns="http://www.w3.org/2000/svg">
  <g transform="translate(20, 146)">
    <path d="M86.04-57.60L63.36-57.60Q61.08-61.80 56.82-64.02Q52.56-66.24 46.80-66.24L46.80-66.24Q36.84-66.24 30.84-59.70Q24.84-53.16 24.84-42.24L24.84-42.24Q24.84-30.60 31.14-24.06Q37.44-17.52 48.48-17.52L48.48-17.52Q56.04-17.52 61.26-21.36Q66.48-25.20 68.88-32.40L68.88-32.40L42.84-32.40L42.84-47.52L87.48-47.52L87.48-28.44Q85.20-20.76 79.74-14.16Q74.28-7.56 65.88-3.48Q57.48 0.60 46.92 0.60L46.92 0.60Q34.44 0.60 24.66-4.86Q14.88-10.32 9.42-20.04Q3.96-29.76 3.96-42.24L3.96-42.24Q3.96-54.72 9.42-64.50Q14.88-74.28 24.60-79.74Q34.32-85.20 46.80-85.20L46.80-85.20Q61.92-85.20 72.30-77.88Q82.68-70.56 86.04-57.60L86.04-57.60Z M150.72 0.84Q138.84 0.84 128.94-4.68Q119.04-10.20 113.22-20.10Q107.40-30 107.40-42.36L107.40-42.36Q107.40-54.72 113.22-64.56Q119.04-74.40 128.94-79.92Q138.84-85.44 150.72-85.44L150.72-85.44Q162.60-85.44 172.50-79.92Q182.40-74.40 188.10-64.56Q193.80-54.72 193.80-42.36L193.80-42.36Q193.80-30 188.04-20.10Q182.28-10.20 172.44-4.68Q162.60 0.84 150.72 0.84L150.72 0.84ZM150.72-17.88Q160.80-17.88 166.86-24.60Q172.92-31.32 172.92-42.36L172.92-42.36Q172.92-53.52 166.86-60.18Q160.80-66.84 150.72-66.84L150.72-66.84Q140.52-66.84 134.46-60.24Q128.40-53.64 128.40-42.36L128.40-42.36Q128.40-31.20 134.46-24.54Q140.52-17.88 150.72-17.88L150.72-17.88Z M237.72-84.24L237.72-15.84L264.60-15.84L264.60 0L217.20 0L217.20-84.24L237.72-84.24Z M326.28 0.84Q314.40 0.84 304.50-4.68Q294.60-10.20 288.78-20.10Q282.96-30 282.96-42.36L282.96-42.36Q282.96-54.72 288.78-64.56Q294.60-74.40 304.50-79.92Q314.40-85.44 326.28-85.44L326.28-85.44Q338.16-85.44 348.06-79.92Q357.96-74.40 363.66-64.56Q369.36-54.72 369.36-42.36L369.36-42.36Q369.36-30 363.60-20.10Q357.84-10.20 348-4.68Q338.16 0.84 326.28 0.84L326.28 0.84ZM326.28-17.88Q336.36-17.88 342.42-24.60Q348.48-31.32 348.48-42.36L348.48-42.36Q348.48-53.52 342.42-60.18Q336.36-66.84 326.28-66.84L326.28-66.84Q316.08-66.84 310.02-60.24Q303.96-53.64 303.96-42.36L303.96-42.36Q303.96-31.20 310.02-24.54Q316.08-17.88 326.28-17.88L326.28-17.88Z M471.36-57.60L448.68-57.60Q446.40-61.80 442.14-64.02Q437.88-66.24 432.12-66.24L432.12-66.24Q422.16-66.24 416.16-59.70Q410.16-53.16 410.16-42.24L410.16-42.24Q410.16-30.60 416.46-24.06Q422.76-17.52 433.80-17.52L433.80-17.52Q441.36-17.52 446.58-21.36Q451.80-25.20 454.20-32.40L454.20-32.40L428.16-32.40L428.16-47.52L472.80-47.52L472.80-28.44Q470.52-20.76 465.06-14.16Q459.60-7.56 451.20-3.48Q442.80 0.60 432.24 0.60L432.24 0.60Q419.76 0.60 409.98-4.86Q400.20-10.32 394.74-20.04Q389.28-29.76 389.28-42.24L389.28-42.24Q389.28-54.72 394.74-64.50Q400.20-74.28 409.92-79.74Q419.64-85.20 432.12-85.20L432.12-85.20Q447.24-85.20 457.62-77.88Q468-70.56 471.36-57.60L471.36-57.60Z M536.04 0.84Q524.16 0.84 514.26-4.68Q504.36-10.20 498.54-20.10Q492.72-30 492.72-42.36L492.72-42.36Q492.72-54.72 498.54-64.56Q504.36-74.40 514.26-79.92Q524.16-85.44 536.04-85.44L536.04-85.44Q547.92-85.44 557.82-79.92Q567.72-74.40 573.42-64.56Q579.12-54.72 579.12-42.36L579.12-42.36Q579.12-30 573.36-20.10Q567.60-10.20 557.76-4.68Q547.92 0.84 536.04 0.84L536.04 0.84ZM536.04-17.88Q546.12-17.88 552.18-24.60Q558.24-31.32 558.24-42.36L558.24-42.36Q558.24-53.52 552.18-60.18Q546.12-66.84 536.04-66.84L536.04-66.84Q525.84-66.84 519.78-60.24Q513.72-53.64 513.72-42.36L513.72-42.36Q513.72-31.20 519.78-24.54Q525.84-17.88 536.04-17.88L536.04-17.88Z M597.96-84.24L663.12-84.24L663.12-67.80L640.80-67.80L640.80 0L620.28 0L620.28-67.80L597.96-67.80L597.96-84.24Z M734.64-84.24L757.68-84.24L728.52-27.84L728.52 0L708.00 0L708.00-27.84L678.84-84.24L702.12-84.24L718.44-48.96L734.64-84.24Z M842.16-57.12Q842.16-49.80 838.80-43.74Q835.44-37.68 828.48-33.96Q821.52-30.24 811.20-30.24L811.20-30.24L798.48-30.24L798.48 0L777.96 0L777.96-84.24L811.20-84.24Q821.28-84.24 828.24-80.76Q835.20-77.28 838.68-71.16Q842.16-65.04 842.16-57.12L842.16-57.12ZM809.64-46.56Q815.52-46.56 818.40-49.32Q821.28-52.08 821.28-57.12L821.28-57.12Q821.28-62.16 818.40-64.92Q815.52-67.68 809.64-67.68L809.64-67.68L798.48-67.68L798.48-46.56L809.64-46.56Z M916.44-67.80L885.36-67.80L885.36-50.76L912.84-50.76L912.84-34.92L885.36-34.92L885.36-16.44L916.44-16.44L916.44 0L864.84 0L864.84-84.24L916.44-84.24L916.44-67.80Z" fill="#111827"/>
  </g>
</svg>