<svg width="676" height="197" viewBox="0 0 676 197" xmlns="http://www.w3.org/2000/svg">
  <g transform="translate(20, 139.04)">
    <path d="M45.12 1.44L45.12 1.44Q33.24 1.44 24.30-3.96Q15.36-9.36 10.44-19.02Q5.52-28.68 5.52-41.64L5.52-41.64Q5.52-54.48 10.56-64.38Q15.60-74.28 25.02-79.86Q34.44-85.44 47.40-85.44L47.40-85.44Q62.04-85.44 71.70-78.42Q81.36-71.40 84.24-58.92L84.24-58.92L68.04-58.92Q66.24-65.16 60.96-68.64Q55.68-72.12 47.28-72.12L47.28-72.12Q38.76-72.12 32.70-68.46Q26.64-64.80 23.46-57.90Q20.28-51 20.28-41.52L20.28-41.52Q20.28-32.04 23.46-25.20Q26.64-18.36 32.52-14.82Q38.40-11.28 46.32-11.28L46.32-11.28Q58.08-11.28 64.08-17.88Q70.08-24.48 71.16-35.04L71.16-35.04L49.44-35.04L49.44-45.96L85.68-45.96L85.68 0L72.48 0L71.28-11.52L71.28-11.52Q68.52-7.44 64.92-4.50Q61.32-1.56 56.46-0.06Q51.60 1.44 45.12 1.44Z M123.88 1.44L123.88 1.44Q115.24 1.44 108.34-2.58Q101.44-6.60 97.54-13.74Q93.64-20.88 93.64-30.12L93.64-30.12Q93.64-39.60 97.60-46.74Q101.56-53.88 108.46-57.90Q115.36-61.92 124-61.92L124-61.92Q132.64-61.92 139.54-57.90Q146.44-53.88 150.34-46.80Q154.24-39.72 154.24-30.24L154.24-30.24Q154.24-20.76 150.28-13.68Q146.32-6.60 139.42-2.58Q132.52 1.44 123.88 1.44ZM123.88-10.92L123.88-10.92Q128.20-10.92 131.74-13.08Q135.28-15.24 137.44-19.56Q139.60-23.88 139.60-30.24L139.60-30.24Q139.60-36.60 137.50-40.86Q135.40-45.12 131.86-47.28Q128.32-49.44 124-49.44L124-49.44Q119.80-49.44 116.20-47.28Q112.60-45.12 110.44-40.86Q108.28-36.60 108.28-30.24L108.28-30.24Q108.28-23.88 110.44-19.56Q112.60-15.24 116.14-13.08Q119.68-10.92 123.88-10.92Z M177.68 0L163.28 0L163.28-86.40L177.68-86.40L177.68 0Z M216.96 1.44L216.96 1.44Q208.32 1.44 201.42-2.58Q194.52-6.60 190.62-13.74Q186.72-20.88 186.72-30.12L186.72-30.12Q186.72-39.60 190.68-46.74Q194.64-53.88 201.54-57.90Q208.44-61.92 217.08-61.92L217.08-61.92Q225.72-61.92 232.62-57.90Q239.52-53.88 243.42-46.80Q247.32-39.72 247.32-30.24L247.32-30.24Q247.32-20.76 243.36-13.68Q239.40-6.60 232.50-2.58Q225.60 1.44 216.96 1.44ZM216.96-10.92L216.96-10.92Q221.28-10.92 224.82-13.08Q228.36-15.24 230.52-19.56Q232.68-23.88 232.68-30.24L232.68-30.24Q232.68-36.60 230.58-40.86Q228.48-45.12 224.94-47.28Q221.40-49.44 217.08-49.44L217.08-49.44Q212.88-49.44 209.28-47.28Q205.68-45.12 203.52-40.86Q201.36-36.60 201.36-30.24L201.36-30.24Q201.36-23.88 203.52-19.56Q205.68-15.24 209.22-13.08Q212.76-10.92 216.96-10.92Z M281.80 27.84L281.80 27.84Q273.28 27.84 266.86 25.74Q260.44 23.64 256.90 19.38Q253.36 15.12 253.36 8.76L253.36 8.76Q253.36 5.04 255.22 1.50Q257.08-2.04 260.86-5.10Q264.64-8.16 270.52-10.44L270.52-10.44L276.88-3.48Q271.12-1.44 268.84 1.44Q266.56 4.32 266.56 7.32L266.56 7.32Q266.56 10.44 268.54 12.54Q270.52 14.64 273.94 15.72Q277.36 16.80 281.68 16.80L281.68 16.80Q285.88 16.80 289 15.66Q292.12 14.52 293.86 12.48Q295.60 10.44 295.60 7.56L295.60 7.56Q295.60 3.96 293.08 1.74Q290.56-0.48 283.12-0.96L283.12-0.96Q276.76-1.44 271.96-2.34Q267.16-3.24 263.74-4.44Q260.32-5.64 257.92-7.14Q255.52-8.64 253.96-10.20L253.96-10.20L253.96-12.96L266.56-26.16L277.24-22.68L263.08-8.88L266.80-15.84Q268-15 269.26-14.28Q270.52-13.56 272.50-13.02Q274.48-12.48 277.72-12Q280.96-11.52 286.12-11.04L286.12-11.04Q294.16-10.44 299.20-8.16Q304.24-5.88 306.64-2.04Q309.04 1.80 309.04 7.20L309.04 7.20Q309.04 12.48 306.10 17.16Q303.16 21.84 297.16 24.84Q291.16 27.84 281.80 27.84ZM281.80-18.12L281.80-18.12Q274.24-18.12 268.78-21.06Q263.32-24 260.44-28.98Q257.56-33.96 257.56-39.96L257.56-39.96Q257.56-46.08 260.44-51Q263.32-55.92 268.78-58.92Q274.24-61.92 281.80-61.92L281.80-61.92Q289.36-61.92 294.76-58.92Q300.16-55.92 303.04-51Q305.92-46.08 305.92-39.96L305.92-39.96Q305.92-33.96 303.04-28.98Q300.16-24 294.76-21.06Q289.36-18.12 281.80-18.12ZM281.80-29.28L281.80-29.28Q286.96-29.28 290.08-32.04Q293.20-34.80 293.20-39.96L293.20-39.96Q293.20-45.12 290.08-47.82Q286.96-50.52 281.80-50.52L281.80-50.52Q276.64-50.52 273.40-47.82Q270.16-45.12 270.16-39.96L270.16-39.96Q270.16-34.80 273.40-32.04Q276.64-29.28 281.80-29.28ZM313.84-51.36L291.76-49.92L289-60.48L313.84-60.48L313.84-51.36Z M349.76 1.44L349.76 1.44Q341.12 1.44 334.22-2.58Q327.32-6.60 323.42-13.74Q319.52-20.88 319.52-30.12L319.52-30.12Q319.52-39.60 323.48-46.74Q327.44-53.88 334.34-57.90Q341.24-61.92 349.88-61.92L349.88-61.92Q358.52-61.92 365.42-57.90Q372.32-53.88 376.22-46.80Q380.12-39.72 380.12-30.24L380.12-30.24Q380.12-20.76 376.16-13.68Q372.20-6.60 365.30-2.58Q358.40 1.44 349.76 1.44ZM349.76-10.92L349.76-10.92Q354.08-10.92 357.62-13.08Q361.16-15.24 363.32-19.56Q365.48-23.88 365.48-30.24L365.48-30.24Q365.48-36.60 363.38-40.86Q361.28-45.12 357.74-47.28Q354.20-49.44 349.88-49.44L349.88-49.44Q345.68-49.44 342.08-47.28Q338.48-45.12 336.32-40.86Q334.16-36.60 334.16-30.24L334.16-30.24Q334.16-23.88 336.32-19.56Q338.48-15.24 342.02-13.08Q345.56-10.92 349.76-10.92Z M425.76 0L415.44 0Q409.32 0 404.82-1.92Q400.32-3.84 397.80-8.28Q395.28-12.72 395.28-20.28L395.28-20.28L395.28-48.36L384.96-48.36L384.96-60.48L395.28-60.48L396.96-76.44L409.68-76.44L409.68-60.48L426.12-60.48L426.12-48.36L409.68-48.36L409.68-20.28Q409.68-15.72 411.66-13.98Q413.64-12.24 418.32-12.24L418.32-12.24L425.76-12.24L425.76 0Z M457.24 26.40L442 26.40L456.76-6.72L453.16-6.72L429.04-60.48L444.76-60.48L462.76-19.44L462.76-19.44L479.80-60.48L495.04-60.48L457.24 26.40Z M514.88 26.40L500.48 26.40L500.48-60.48L513.32-60.48L514.88-51.72L514.88-51.72Q516.80-54.36 519.50-56.70Q522.20-59.04 526.10-60.48Q530-61.92 535.04-61.92L535.04-61.92Q543.56-61.92 550.10-57.72Q556.64-53.52 560.36-46.38Q564.08-39.24 564.08-30.12L564.08-30.12Q564.08-21 560.30-13.86Q556.52-6.72 549.98-2.64Q543.44 1.44 535.04 1.44L535.04 1.44Q528.20 1.44 523.10-1.14Q518-3.72 514.88-8.52L514.88-8.52L514.88 26.40ZM532.04-11.04L532.04-11.04Q537.08-11.04 541.04-13.44Q545-15.84 547.22-20.16Q549.44-24.48 549.44-30.12L549.44-30.12Q549.44-35.88 547.22-40.20Q545-44.52 541.04-46.92Q537.08-49.32 532.04-49.32L532.04-49.32Q526.88-49.32 522.98-46.92Q519.08-44.52 516.86-40.20Q514.64-35.88 514.64-30.24L514.64-30.24Q514.64-24.48 516.86-20.22Q519.08-15.96 522.98-13.50Q526.88-11.04 532.04-11.04Z M601.32 1.44L601.32 1.44Q592.32 1.44 585.48-2.46Q578.64-6.36 574.80-13.44Q570.96-20.52 570.96-29.76L570.96-29.76Q570.96-39.36 574.74-46.56Q578.52-53.76 585.42-57.84Q592.32-61.92 601.44-61.92L601.44-61.92Q610.32-61.92 616.92-57.96Q623.52-54 627.12-47.34Q630.72-40.68 630.72-32.40L630.72-32.40Q630.72-31.20 630.72-29.76Q630.72-28.32 630.48-26.76L630.48-26.76L581.28-26.76L581.28-36L616.20-36Q615.96-42.60 611.76-46.38Q607.56-50.16 601.32-50.16L601.32-50.16Q596.88-50.16 593.16-48.12Q589.44-46.08 587.28-42.06Q585.12-38.04 585.12-31.92L585.12-31.92L585.12-28.44Q585.12-22.80 587.22-18.72Q589.32-14.64 592.98-12.54Q596.64-10.44 601.20-10.44L601.20-10.44Q606.24-10.44 609.54-12.60Q612.84-14.76 614.40-18.36L614.40-18.36L629.04-18.36Q627.36-12.72 623.52-8.22Q619.68-3.72 614.04-1.14Q608.40 1.44 601.32 1.44Z" fill="#2245FF"/>
  </g>
</svg>